<svg width="1360" height="900" viewBox="0 0 1360 900" fill="none" xmlns="http://www.w3.org/2000/svg">
<mask id="mask0" mask-type="alpha" maskUnits="userSpaceOnUse" x="0" y="0" width="1360" height="900">
<rect width="1360" height="900" fill="#4737FF"/>
</mask>
<g mask="url(#mask0)">
<path opacity="0.1" d="M519.967 -231C109.072 -231 -171 48.6882 -171 459.02C-171 861.992 114.6 1138 519.967 1138C702.382 1138 884.798 1101.2 1058 1009.2V343.097H558.661V552.863H825.835V860.152C733.706 911.673 619.466 928.234 521.81 928.234C241.738 928.234 72.2204 712.948 72.2204 444.3C72.2204 184.852 252.793 -21.2339 519.967 -21.2339C641.577 -21.2339 772.4 21.0873 860.844 105.73L1032.2 -67.2352C894.01 -192.359 700.54 -231 519.967 -231Z" fill="white"/>
</g>
</svg>
